<svg width="3184" height="1056" viewBox="0 0 3184 1056" fill="none" xmlns="http://www.w3.org/2000/svg">
<path d="M1395.78 866C1354.67 866 1315.91 858.674 1279.5 844.023C1243.68 828.786 1212.56 807.396 1186.14 779.852C1160.3 752.308 1140.92 719.782 1128 682.276L1239.87 632.169C1256.31 667.918 1278.92 696.048 1307.69 716.559C1337.05 737.071 1369.35 747.326 1404.58 747.326C1423.37 747.326 1439.52 744.396 1453.03 738.536C1466.54 732.675 1477.11 724.764 1484.74 714.801C1492.37 704.252 1496.19 691.945 1496.19 677.88C1496.19 662.643 1491.49 649.75 1482.1 639.202C1472.7 628.067 1458.02 619.276 1438.06 612.83L1309.45 570.635C1257.19 553.639 1217.85 529.612 1191.42 498.551C1165 466.905 1151.78 429.105 1151.78 385.152C1151.78 346.473 1161.18 312.483 1179.97 283.181C1199.35 253.879 1226.07 231.023 1260.13 214.614C1294.77 198.205 1334.41 190 1379.04 190C1418.38 190 1454.79 196.739 1488.26 210.218C1521.74 223.697 1550.51 242.744 1574.59 267.358C1599.25 291.971 1617.75 321.567 1630.08 356.143L1519.09 406.25C1506.76 375.775 1488.26 352.041 1463.6 335.046C1438.94 317.464 1410.75 308.674 1379.04 308.674C1360.84 308.674 1344.69 311.604 1330.59 317.464C1316.5 323.325 1305.64 331.822 1298 342.957C1290.37 353.506 1286.55 365.813 1286.55 379.878C1286.55 395.115 1291.54 408.594 1301.53 420.315C1311.51 431.449 1326.48 440.24 1346.45 446.687L1472.41 487.123C1525.26 504.119 1564.6 527.853 1590.44 558.328C1616.87 588.802 1630.08 626.016 1630.08 669.969C1630.08 708.062 1620.1 742.052 1600.13 771.94C1580.16 801.242 1552.56 824.391 1517.33 841.386C1482.68 857.795 1442.17 866 1395.78 866Z" fill="black"/>
<path d="M1949.35 860.726C1891.21 860.726 1846 845.196 1813.7 814.135C1781.99 782.489 1766.13 738.536 1766.13 682.276V489.761H1685.1V375.482H1689.5C1714.16 375.482 1766.13 375.482 1766.13 375.482C1766.13 375.482 1766.13 326.255 1766.13 301.641V266.479H1898.26V375.482H2011.01V489.761H1898.26V673.485C1898.26 689.894 1901.2 703.666 1907.07 714.801C1912.94 725.35 1922.04 733.261 1934.37 738.536C1946.71 743.81 1961.97 746.447 1980.18 746.447C1984.29 746.447 1988.99 746.154 1994.27 745.568C1999.56 744.982 2005.14 744.396 2011.01 743.81V855.451C2002.2 856.623 1992.22 857.795 1981.06 858.967C1969.9 860.14 1959.33 860.726 1949.35 860.726Z" fill="black"/>
<path d="M2237.29 866C2202.65 866 2172.7 860.433 2147.45 849.298C2122.2 838.163 2102.82 822.34 2089.31 801.828C2075.81 780.731 2069.05 755.824 2069.05 727.108C2069.05 700.15 2075.22 676.415 2087.55 655.904C2099.88 634.806 2118.67 617.225 2143.92 603.16C2169.76 589.095 2201.77 579.132 2239.94 573.272L2387.04 549.537V646.234L2263.72 668.211C2244.93 671.727 2230.54 677.88 2220.56 686.671C2210.58 694.876 2205.58 706.889 2205.58 722.713C2205.58 737.364 2211.16 748.791 2222.32 756.996C2233.48 765.201 2247.28 769.303 2263.72 769.303C2285.45 769.303 2304.53 764.615 2320.97 755.238C2337.42 745.861 2350.04 733.261 2358.85 717.438C2368.25 701.029 2372.94 683.155 2372.94 663.815V538.988C2372.94 520.821 2365.6 505.584 2350.92 493.277C2336.83 480.97 2317.45 474.817 2292.79 474.817C2269.3 474.817 2248.45 481.263 2230.25 494.156C2212.63 507.049 2199.71 524.044 2191.49 545.142L2085.79 495.035C2095.19 468.077 2110.16 444.928 2130.71 425.589C2151.27 406.25 2175.93 391.306 2204.7 380.757C2233.48 370.208 2264.89 364.934 2298.95 364.934C2339.47 364.934 2375.29 372.259 2406.42 386.91C2437.54 401.561 2461.61 422.073 2478.64 448.445C2496.26 474.231 2505.07 504.412 2505.07 538.988V855.451H2381.75V778.094L2411.7 772.819C2397.61 793.917 2382.05 811.498 2365.02 825.563C2347.99 839.042 2328.9 849.005 2307.76 855.451C2286.62 862.484 2263.13 866 2237.29 866Z" fill="black"/>
<path d="M2585.58 855.451V375.482H2708.9V470.421L2701.85 449.324C2713.01 420.608 2730.92 399.51 2755.58 386.031C2780.83 371.966 2810.19 364.934 2843.67 364.934C2880.07 364.934 2911.78 372.552 2938.8 387.789C2966.4 403.026 2987.83 424.417 3003.1 451.961C3018.37 478.919 3026 510.565 3026 546.9V855.451H2893.87V575.03C2893.87 556.276 2890.06 540.16 2882.42 526.681C2875.38 513.202 2865.1 502.654 2851.59 495.035C2838.67 487.417 2823.41 483.607 2805.79 483.607C2788.76 483.607 2773.49 487.417 2759.99 495.035C2746.48 502.654 2735.91 513.202 2728.28 526.681C2721.23 540.16 2717.71 556.276 2717.71 575.03V855.451H2585.58Z" fill="black"/>
<rect x="166.824" y="131.912" width="790.799" height="790.799" rx="395.4" fill="url(#paint0_linear_5664_9597)"/>
<path d="M421.575 470.636C417.649 439.63 426.416 408.993 446.246 384.389C466.905 358.741 496.493 343.737 527.463 340.263V313.276C527.463 299.232 539.203 287.85 553.687 287.85C568.171 287.85 579.911 299.232 579.911 313.276V345.576C592.471 349.678 604.535 355.868 615.56 364.22L660.509 398.266C671.925 406.914 673.945 422.879 665.026 433.948C656.106 445.016 639.631 446.975 628.224 438.336L583.275 404.29C553.649 381.858 510.72 386.967 487.574 415.682C476.358 429.596 471.413 446.91 473.633 464.437C475.853 481.963 484.972 497.605 499.323 508.471L563.378 556.994C574.794 565.642 576.814 581.617 567.905 592.685C562.73 599.106 555.021 602.451 547.226 602.451C541.585 602.451 535.896 600.695 531.103 597.064L467.048 548.541C441.643 529.305 425.501 501.643 421.575 470.636Z" fill="white"/>
<path d="M650.465 512.759L588.216 464.239C577.124 455.592 561.115 457.551 552.458 468.618C543.791 479.686 545.754 495.659 556.846 504.306L619.086 552.826C633.03 563.69 641.9 579.331 644.057 596.856C646.215 614.381 641.4 631.694 630.511 645.607C617.456 662.273 597.947 670.994 578.235 670.984C563.976 670.984 549.606 666.421 537.523 657.007L493.848 622.964C482.755 614.316 466.746 616.275 458.08 627.342C449.414 638.41 451.386 654.383 462.478 663.03L506.144 697.074C516.847 705.425 528.578 711.615 540.782 715.716V748.023C540.782 762.065 552.189 773.447 566.263 773.447C580.337 773.447 591.744 762.065 591.744 748.023V721.038C621.845 717.573 650.585 702.57 670.668 676.925C710.454 626.114 701.399 552.475 650.474 512.778L650.465 512.759Z" fill="white"/>
<defs>
<linearGradient id="paint0_linear_5664_9597" x1="401.135" y1="131.912" x2="741.132" y2="892.876" gradientUnits="userSpaceOnUse">
<stop stop-color="#6D55FF"/>
<stop offset="1" stop-color="#3E68FF"/>
</linearGradient>
</defs>
</svg>
