<svg width="400" height="100" viewBox="0 0 400 100" fill="none" xmlns="http://www.w3.org/2000/svg">
<g clip-path="url(#clip0_1927_82174)">
<g filter="url(#filter0_d_1927_82174)">
<rect x="11" y="15" width="381" height="69" rx="34.5" fill="black"/>
</g>
<path d="M45.6655 56.1381H52.1055V59.2461H41.7455V39.7021H45.6655V56.1381ZM57.957 42.8661V47.7661H64.537V50.8741H57.957V56.0541H65.377V59.2461H54.037V39.6741H65.377V42.8661H57.957ZM80.3634 55.5221H72.5794L71.2914 59.2461H67.1754L74.2034 39.6741H78.7674L85.7954 59.2461H81.6514L80.3634 55.5221ZM79.2994 52.3861L76.4714 44.2101L73.6434 52.3861H79.2994ZM97.9424 59.2461L93.6304 51.6301H91.7824V59.2461H87.8624V39.7021H95.1984C96.7104 39.7021 97.9984 39.9728 99.0624 40.5141C100.126 41.0368 100.92 41.7554 101.442 42.6701C101.984 43.5661 102.254 44.5741 102.254 45.6941C102.254 46.9821 101.881 48.1488 101.134 49.1941C100.388 50.2208 99.277 50.9301 97.8024 51.3221L102.478 59.2461H97.9424ZM91.7824 48.6901H95.0584C96.1224 48.6901 96.9157 48.4381 97.4384 47.9341C97.961 47.4114 98.2224 46.6928 98.2224 45.7781C98.2224 44.8821 97.961 44.1914 97.4384 43.7061C96.9157 43.2021 96.1224 42.9501 95.0584 42.9501H91.7824V48.6901ZM121.956 59.2461H118.036L109.16 45.8341V59.2461H105.24V39.6741H109.16L118.036 53.1141V39.6741H121.956V59.2461ZM152.69 39.7021V59.2461H148.77V46.5341L143.534 59.2461H140.566L135.302 46.5341V59.2461H131.382V39.7021H135.834L142.05 54.2341L148.266 39.7021H152.69ZM165.077 59.4421C163.248 59.4421 161.568 59.0128 160.037 58.1541C158.506 57.2954 157.293 56.1101 156.397 54.5981C155.501 53.0674 155.053 51.3408 155.053 49.4181C155.053 47.5141 155.501 45.8061 156.397 44.2941C157.293 42.7634 158.506 41.5688 160.037 40.7101C161.568 39.8514 163.248 39.4221 165.077 39.4221C166.925 39.4221 168.605 39.8514 170.117 40.7101C171.648 41.5688 172.852 42.7634 173.729 44.2941C174.625 45.8061 175.073 47.5141 175.073 49.4181C175.073 51.3408 174.625 53.0674 173.729 54.5981C172.852 56.1101 171.648 57.2954 170.117 58.1541C168.586 59.0128 166.906 59.4421 165.077 59.4421ZM165.077 55.9421C166.253 55.9421 167.289 55.6808 168.185 55.1581C169.081 54.6168 169.781 53.8514 170.285 52.8621C170.789 51.8728 171.041 50.7248 171.041 49.4181C171.041 48.1114 170.789 46.9728 170.285 46.0021C169.781 45.0128 169.081 44.2568 168.185 43.7341C167.289 43.2114 166.253 42.9501 165.077 42.9501C163.901 42.9501 162.856 43.2114 161.941 43.7341C161.045 44.2568 160.345 45.0128 159.841 46.0021C159.337 46.9728 159.085 48.1114 159.085 49.4181C159.085 50.7248 159.337 51.8728 159.841 52.8621C160.345 53.8514 161.045 54.6168 161.941 55.1581C162.856 55.6808 163.901 55.9421 165.077 55.9421ZM187.51 59.2461L183.198 51.6301H181.35V59.2461H177.43V39.7021H184.766C186.278 39.7021 187.566 39.9728 188.63 40.5141C189.694 41.0368 190.487 41.7554 191.01 42.6701C191.551 43.5661 191.822 44.5741 191.822 45.6941C191.822 46.9821 191.448 48.1488 190.702 49.1941C189.955 50.2208 188.844 50.9301 187.37 51.3221L192.046 59.2461H187.51ZM181.35 48.6901H184.626C185.69 48.6901 186.483 48.4381 187.006 47.9341C187.528 47.4114 187.79 46.6928 187.79 45.7781C187.79 44.8821 187.528 44.1914 187.006 43.7061C186.483 43.2021 185.69 42.9501 184.626 42.9501H181.35V48.6901ZM198.727 42.8661V47.7661H205.307V50.8741H198.727V56.0541H206.147V59.2461H194.807V39.6741H206.147V42.8661H198.727Z" fill="white"/>
<path d="M355.211 59.0238L352.904 56.7369L358.959 50.6815H344.77V47.3207H358.959L352.904 41.2752L355.211 38.9783L365.233 49.0011L355.211 59.0238Z" fill="white"/>
</g>
<defs>
<filter id="filter0_d_1927_82174" x="-4" y="5" width="411" height="99" filterUnits="userSpaceOnUse" color-interpolation-filters="sRGB">
<feFlood flood-opacity="0" result="BackgroundImageFix"/>
<feColorMatrix in="SourceAlpha" type="matrix" values="0 0 0 0 0 0 0 0 0 0 0 0 0 0 0 0 0 0 127 0" result="hardAlpha"/>
<feOffset dy="5"/>
<feGaussianBlur stdDeviation="7.5"/>
<feComposite in2="hardAlpha" operator="out"/>
<feColorMatrix type="matrix" values="0 0 0 0 0 0 0 0 0 0 0 0 0 0 0 0 0 0 0.25 0"/>
<feBlend mode="normal" in2="BackgroundImageFix" result="effect1_dropShadow_1927_82174"/>
<feBlend mode="normal" in="SourceGraphic" in2="effect1_dropShadow_1927_82174" result="shape"/>
</filter>
<clipPath id="clip0_1927_82174">
<rect width="400" height="100" fill="white"/>
</clipPath>
</defs>
</svg>
