<svg width="32" height="32" viewBox="0 0 32 32" fill="none" xmlns="http://www.w3.org/2000/svg">
<path d="M2 12C2 6.47715 6.47715 2 12 2H29C29.5523 2 30 2.44772 30 3V20C30 25.5228 25.5228 30 20 30H3C2.44771 30 2 29.5523 2 29V12Z" fill="url(#paint0_linear_1923_82166)"/>
<path d="M11.3816 13.5228C11.253 12.5011 11.5401 11.4916 12.1896 10.681C12.8662 9.83587 13.8352 9.34148 14.8494 9.22701V8.33778C14.8494 7.87505 15.2339 7.5 15.7083 7.5C16.1826 7.5 16.5671 7.87505 16.5671 8.33778V9.40206C16.9784 9.53722 17.3735 9.74119 17.7346 10.0164L19.2067 11.1382C19.5806 11.4231 19.6467 11.9492 19.3546 12.3139C19.0625 12.6786 18.5229 12.7431 18.1494 12.4585L16.6773 11.3367C15.707 10.5975 14.3011 10.7659 13.5431 11.712C13.1757 12.1705 13.0138 12.741 13.0865 13.3185C13.1592 13.896 13.4579 14.4114 13.9279 14.7694L16.0257 16.3683C16.3995 16.6532 16.4657 17.1796 16.1739 17.5443C16.0044 17.7558 15.752 17.866 15.4967 17.866C15.3119 17.866 15.1256 17.8082 14.9686 17.6886L12.8708 16.0897C12.0388 15.4559 11.5102 14.5444 11.3816 13.5228Z" fill="white"/>
<path d="M18.8779 14.9102L16.8393 13.3115C16.476 13.0266 15.9517 13.0911 15.6682 13.4558C15.3844 13.8205 15.4486 14.3468 15.8119 14.6317L17.8503 16.2304C18.3069 16.5884 18.5974 17.1037 18.6681 17.6812C18.7387 18.2586 18.5811 18.8291 18.2245 19.2875C17.7969 19.8367 17.158 20.124 16.5124 20.1237C16.0454 20.1237 15.5748 19.9733 15.1791 19.6632L13.7487 18.5414C13.3854 18.2565 12.8611 18.321 12.5773 18.6857C12.2935 19.0504 12.3581 19.5767 12.7214 19.8616L14.1514 20.9833C14.5019 21.2585 14.8861 21.4625 15.2858 21.5976V22.6621C15.2858 23.1248 15.6594 23.4998 16.1203 23.4998C16.5812 23.4998 16.9548 23.1248 16.9548 22.6621V21.773C17.9406 21.6588 18.8819 21.1645 19.5396 20.3194C20.8426 18.6452 20.546 16.2188 18.8782 14.9108L18.8779 14.9102Z" fill="white"/>
<defs>
<linearGradient id="paint0_linear_1923_82166" x1="10.2963" y1="2" x2="22.3346" y2="28.9436" gradientUnits="userSpaceOnUse">
<stop stop-color="#6D55FF"/>
<stop offset="1" stop-color="#3E68FF"/>
</linearGradient>
</defs>
</svg>
