<svg width="200" height="100" viewBox="0 0 200 100" fill="none" xmlns="http://www.w3.org/2000/svg">
<path d="M86.7915 65.1444C84.2023 65.1444 81.7611 64.6831 79.4678 63.7605C77.2115 62.801 75.2511 61.454 73.5867 59.7194C71.9592 57.9849 70.7385 55.9367 69.9248 53.5749L76.9711 50.4195C78.0068 52.6707 79.4308 54.4421 81.2432 55.7338C83.0927 57.0254 85.127 57.6713 87.3463 57.6713C88.5299 57.6713 89.5471 57.4867 90.3979 57.1177C91.2486 56.7486 91.9144 56.2504 92.3952 55.6231C92.8761 54.9588 93.1165 54.1838 93.1165 53.2981C93.1165 52.3386 92.8206 51.5267 92.2288 50.8624C91.637 50.1612 90.7123 49.6076 89.4547 49.2017L81.3542 46.5446C78.0622 45.4744 75.584 43.9613 73.9195 42.0053C72.2551 40.0125 71.4228 37.6322 71.4228 34.8644C71.4228 32.4287 72.0146 30.2882 73.1983 28.443C74.4189 26.5978 76.1019 25.1585 78.2472 24.1252C80.4295 23.0919 82.9262 22.5752 85.7373 22.5752C88.2155 22.5752 90.5088 22.9996 92.6172 23.8484C94.7255 24.6972 96.5379 25.8966 98.0544 27.4466C99.608 28.9966 100.773 30.8602 101.55 33.0376L94.559 36.1929C93.7823 34.2739 92.6172 32.7793 91.0636 31.709C89.5101 30.6019 87.7347 30.0483 85.7373 30.0483C84.5907 30.0483 83.5735 30.2329 82.6858 30.6019C81.7981 30.9709 81.1138 31.5061 80.6329 32.2072C80.1521 32.8715 79.9117 33.6465 79.9117 34.5322C79.9117 35.4917 80.2261 36.3405 80.8549 37.0786C81.4837 37.7798 82.4269 38.3334 83.6845 38.7393L91.6185 41.2857C94.9474 42.3559 97.4256 43.8506 99.0531 45.7696C100.718 47.6886 101.55 50.032 101.55 52.7999C101.55 55.1987 100.921 57.3391 99.6634 59.2212C98.4058 61.0665 96.6674 62.5242 94.4481 63.5944C92.2658 64.6277 89.7136 65.1444 86.7915 65.1444Z" fill="black"/>
<path d="M121.66 64.8122C117.998 64.8122 115.15 63.8343 113.116 61.8784C111.118 59.8855 110.12 57.1177 110.12 53.5749V41.4518H105.015V34.2554H105.293C106.846 34.2554 110.12 34.2554 110.12 34.2554C110.12 34.2554 110.12 31.1555 110.12 29.6055V27.3912H118.442V34.2554H125.544V41.4518H118.442V53.0213C118.442 54.0546 118.627 54.9219 118.997 55.6231C119.367 56.2873 119.94 56.7855 120.717 57.1177C121.494 57.4498 122.455 57.6159 123.602 57.6159C123.861 57.6159 124.157 57.5974 124.49 57.5605C124.823 57.5236 125.174 57.4867 125.544 57.4498V64.4801C124.989 64.5539 124.36 64.6277 123.657 64.7015C122.955 64.7753 122.289 64.8122 121.66 64.8122Z" fill="black"/>
<path d="M139.797 65.1444C137.615 65.1444 135.729 64.7938 134.138 64.0926C132.548 63.3914 131.327 62.395 130.476 61.1034C129.625 59.7748 129.2 58.2064 129.2 56.3981C129.2 54.7005 129.588 53.2058 130.365 51.9142C131.142 50.5856 132.326 49.4785 133.916 48.5928C135.544 47.7071 137.559 47.0797 139.964 46.7107L149.229 45.216V51.3052L141.462 52.6892C140.278 52.9106 139.372 53.2981 138.743 53.8517C138.114 54.3683 137.8 55.1249 137.8 56.1213C137.8 57.0439 138.151 57.7635 138.854 58.2802C139.557 58.7968 140.426 59.0552 141.462 59.0552C142.83 59.0552 144.032 58.7599 145.068 58.1695C146.104 57.579 146.899 56.7855 147.454 55.7891C148.046 54.7558 148.342 53.6302 148.342 52.4124V44.5517C148.342 43.4077 147.879 42.4482 146.954 41.6732C146.067 40.8982 144.846 40.5107 143.293 40.5107C141.813 40.5107 140.5 40.9167 139.353 41.7286C138.244 42.5405 137.43 43.6107 136.912 44.9392L130.254 41.7839C130.846 40.0863 131.789 38.6286 133.084 37.4108C134.378 36.1929 135.932 35.2518 137.744 34.5876C139.557 33.9233 141.536 33.5911 143.681 33.5911C146.233 33.5911 148.49 34.0525 150.45 34.9751C152.41 35.8977 153.927 37.1893 154.999 38.85C156.109 40.4738 156.664 42.3744 156.664 44.5517V64.4801H148.896V59.6087L150.783 59.2766C149.895 60.6052 148.915 61.7123 147.842 62.598C146.77 63.4468 145.567 64.0742 144.236 64.4801C142.904 64.923 141.425 65.1444 139.797 65.1444Z" fill="black"/>
<path d="M162.767 64.4801V34.2554H170.535V40.2339L170.091 38.9054C170.794 37.0971 171.922 35.7685 173.476 34.9197C175.066 34.034 176.915 33.5911 179.024 33.5911C181.317 33.5911 183.314 34.0709 185.016 35.0304C186.754 35.9899 188.104 37.3369 189.066 39.0715C190.028 40.7691 190.509 42.7619 190.509 45.05V64.4801H182.186V46.8214C182.186 45.6404 181.946 44.6256 181.465 43.7768C181.021 42.928 180.374 42.2637 179.523 41.7839C178.709 41.3042 177.748 41.0643 176.638 41.0643C175.565 41.0643 174.604 41.3042 173.753 41.7839C172.902 42.2637 172.236 42.928 171.756 43.7768C171.312 44.6256 171.09 45.6404 171.09 46.8214V64.4801H162.767Z" fill="black"/>
<rect x="9" y="19" width="48.3996" height="48.3996" rx="24.1998" fill="url(#paint0_linear_1927_82167)"/>
<path d="M24.5942 39.7311C24.3539 37.8334 24.8905 35.9583 26.1042 34.4525C27.3686 32.8828 29.1795 31.9644 31.0749 31.7518V30.1001C31.0749 29.2406 31.7934 28.5439 32.6799 28.5439C33.5664 28.5439 34.2849 29.2406 34.2849 30.1001V32.077C35.0536 32.328 35.792 32.7069 36.4667 33.2181L39.2178 35.3018C39.9165 35.8311 40.0401 36.8082 39.4942 37.4857C38.9483 38.1631 37.94 38.283 37.2418 37.7543L34.4908 35.6705C32.6776 34.2976 30.0502 34.6103 28.6336 36.3677C27.9471 37.2193 27.6444 38.279 27.7803 39.3517C27.9162 40.4244 28.4743 41.3817 29.3527 42.0467L33.273 45.0165C33.9717 45.5458 34.0954 46.5235 33.5501 47.2009C33.2334 47.5939 32.7616 47.7986 32.2845 47.7986C31.9392 47.7986 31.5911 47.6912 31.2977 47.469L27.3773 44.4991C25.8225 43.3218 24.8345 41.6288 24.5942 39.7311Z" fill="white"/>
<path d="M38.6013 42.3085L34.7915 39.3389C34.1126 38.8097 33.1328 38.9295 32.603 39.6069C32.0725 40.2843 32.1927 41.2619 32.8716 41.7911L36.6808 44.7607C37.5343 45.4256 38.0771 46.3829 38.2092 47.4555C38.3412 48.5281 38.0465 49.5877 37.3801 50.4392C36.5811 51.4592 35.3871 51.993 34.1806 51.9924C33.3079 51.9924 32.4284 51.7131 31.6889 51.1369L29.0158 49.0534C28.337 48.5241 27.3572 48.644 26.8267 49.3214C26.2963 49.9987 26.417 50.9764 27.0959 51.5056L29.7684 53.5892C30.4235 54.1003 31.1415 54.4791 31.8884 54.7302V56.7074C31.8884 57.5669 32.5865 58.2635 33.4479 58.2635C34.3093 58.2635 35.0074 57.5669 35.0074 56.7074V55.0559C36.8497 54.8438 38.6087 53.9256 39.8378 52.356C42.2729 49.2462 41.7187 44.7392 38.6019 42.3096L38.6013 42.3085Z" fill="white"/>
<defs>
<linearGradient id="paint0_linear_1927_82167" x1="23.3406" y1="19" x2="44.1496" y2="65.5736" gradientUnits="userSpaceOnUse">
<stop stop-color="#6D55FF"/>
<stop offset="1" stop-color="#3E68FF"/>
</linearGradient>
</defs>
</svg>
